<svg xmlns="http://www.w3.org/2000/svg" xmlns:xlink="http://www.w3.org/1999/xlink" viewBox="0 0 512 114" width="512" height="114" xml:space="preserve"><style>.a{fill:currentColor}.b{fill-rule:evenodd;clip-rule:evenodd}}</style><path class="a b" d="M45 14c-6.6 0-12 5.4-12 12s5.4 12 12 12 12-5.4 12-12-5.4-12-12-12zm2.8 15v1H42c0-.7.2-1.4.4-1.9s.8-1 1.5-1.5l1.1-.7c.5-.3.9-.5 1.1-.8.3-.3.5-.7.5-1.1 0-.5-.1-.9-.4-1.2s-.7-.4-1.2-.4c-.7 0-1.2.3-1.5.8-.1.3-.2.7-.2 1.2h-1.1c0-.7.1-1.3.4-1.8.5-.8 1.3-1.2 2.4-1.2 1 0 1.7.3 2.1.8s.7 1.1.7 1.7c0 .7-.2 1.2-.7 1.7-.3.3-.8.6-1.5 1l-.8.4c-.4.2-.7.4-.9.6-.4.3-.6.7-.7 1.1h4.6zM499 13c-6.6 0-12 5.4-12 12s5.4 12 12 12 12-5.4 12-12-5.4-12-12-12zm2 15.5c-.5.5-1.3.8-2.2.8-1 0-1.7-.3-2.2-.8s-.7-1.2-.7-2h1.1c0 .5.1.9.3 1.2.3.4.8.7 1.5.7.6 0 1-.1 1.3-.4s.5-.7.5-1.1c0-.6-.2-1-.5-1.2s-.8-.3-1.5-.3h-.4v-.9h.5c.4 0 .7-.1 1-.2.4-.2.7-.6.7-1.2 0-.4-.1-.7-.4-1s-.6-.3-1-.3c-.7 0-1.2.2-1.5.7-.1.3-.2.6-.3 1.1h-1c0-.6.1-1.2.4-1.6.4-.8 1.2-1.2 2.3-1.2.9 0 1.5.2 2 .6s.7.9.7 1.7c0 .5-.1.9-.4 1.3-.2.2-.4.4-.7.5.4.1.8.4 1 .7s.4.8.4 1.3c-.1.4-.3 1.1-.9 1.6z"/><path class="a b" d="M238 14c-6.6 0-12 5.4-12 12s5.4 12 12 12 12-5.4 12-12-5.4-12-12-12zm.9 16h-1.1v-5.9h-2v-.8c.8-.1 1.3-.2 1.6-.4s.5-.6.7-1.2h.8V30z"/></svg>
