<svg viewBox="0 0 512 113" fill="none" xmlns="http://www.w3.org/2000/svg" xmlns:xlink="http://www.w3.org/1999/xlink"><defs><path d="M232 23H121a3 3 0 0 0-3 3v60a3 3 0 0 0 3 3h111a3 3 0 0 0 3-3V26a3 3 0 0 0-3-3Z" stroke="currentColor" stroke-width="1.5" stroke-linecap="square" stroke-dasharray="4 4" id="a"/></defs><path fill-rule="evenodd" clip-rule="evenodd" d="M450.033 81.198c1.733 1.833 2.93 4.318 3.275 7.122a1.516 1.516 0 0 1-.374 1.176 1.514 1.514 0 0 1-1.126.504H434.01a1.508 1.508 0 0 1-1.498-1.68c.343-2.804 1.54-5.29 3.273-7.122.37.342.757.663 1.173.95-1.557 1.603-2.648 3.824-2.958 6.355l17.808-.003c-.306-2.53-1.394-4.75-2.95-6.353a10.22 10.22 0 0 0 1.175-.949ZM442.91 66a7.503 7.503 0 0 1 7.5 7.502 7.5 7.5 0 0 1-14.431 2.869A7.501 7.501 0 0 1 442.91 66Zm5.39 4.864-.161.077c-.453.198-.952.31-1.48.31-.446 0-.868-.092-1.265-.236-1.032 1.278-2.59 2.11-4.36 2.11-.348 0-.737.01-1.139.013h-.304c-.95-.006-1.937-.081-2.625-.458a6.014 6.014 0 0 0 1.423 4.76 5.994 5.994 0 0 0 4.52 2.06 6.005 6.005 0 0 0 5.391-8.636Zm-46.267 10.334c1.733 1.833 2.93 4.318 3.275 7.122a1.516 1.516 0 0 1-.374 1.176 1.514 1.514 0 0 1-1.126.504H386.01a1.508 1.508 0 0 1-1.498-1.68c.343-2.804 1.54-5.29 3.273-7.122.37.342.757.663 1.173.95-1.557 1.603-2.648 3.824-2.958 6.355l17.808-.003c-.306-2.53-1.394-4.75-2.95-6.353a10.22 10.22 0 0 0 1.175-.949ZM394.91 66a7.498 7.498 0 0 1 6.929 4.631A7.501 7.501 0 1 1 394.91 66Zm5.39 4.864-.161.077c-.453.198-.952.31-1.48.31-.446 0-.868-.092-1.265-.236-1.032 1.278-2.59 2.11-4.36 2.11-.348 0-.737.01-1.139.013h-.304c-.95-.006-1.937-.081-2.625-.458a6.014 6.014 0 0 0 1.423 4.76 5.994 5.994 0 0 0 4.52 2.06 6.005 6.005 0 0 0 5.391-8.636Zm25.733 10.334c1.733 1.833 2.93 4.318 3.275 7.122a1.516 1.516 0 0 1-.374 1.176 1.514 1.514 0 0 1-1.126.504H410.01a1.508 1.508 0 0 1-1.498-1.68c.343-2.804 1.54-5.29 3.273-7.122.37.342.757.663 1.173.95-1.557 1.603-2.648 3.824-2.958 6.355l17.808-.003c-.306-2.53-1.394-4.75-2.95-6.353a10.22 10.22 0 0 0 1.175-.949ZM418.91 66a7.503 7.503 0 0 1 7.5 7.502 7.5 7.5 0 0 1-14.431 2.869A7.501 7.501 0 0 1 418.91 66Zm5.39 4.864-.161.077c-.453.198-.952.31-1.48.31-.446 0-.868-.092-1.265-.236-1.032 1.278-2.59 2.11-4.36 2.11-.348 0-.737.01-1.139.013h-.304c-.95-.006-1.937-.081-2.625-.458a6.014 6.014 0 0 0 1.423 4.76 5.994 5.994 0 0 0 4.52 2.06 6.005 6.005 0 0 0 5.391-8.636Z" fill="currentColor"/><path d="M357.032 99.958h1.948l2.885 8.49 2.864-8.49h1.928V110h-1.292v-5.927c0-.205.005-.544.014-1.018.009-.474.014-.982.014-1.525l-2.865 8.47h-1.346l-2.885-8.47v.308c0 .246.004.622.014 1.128.013.501.02.87.02 1.107V110h-1.299V99.958Zm12.476 8.094c0 .355.13.636.389.841.26.205.568.307.923.307.433 0 .853-.1 1.258-.301.684-.332 1.026-.877 1.026-1.633v-.992a2.116 2.116 0 0 1-.582.24 5.006 5.006 0 0 1-.697.136l-.745.096c-.447.059-.781.153-1.005.28-.378.215-.567.556-.567 1.026Zm2.98-2.489c.283-.036.472-.154.568-.355.054-.109.082-.267.082-.472 0-.419-.151-.722-.451-.909-.297-.191-.723-.287-1.279-.287-.642 0-1.098.173-1.367.52-.15.191-.248.476-.294.854h-1.148c.022-.902.314-1.529.875-1.88.565-.355 1.219-.533 1.962-.533.861 0 1.56.164 2.098.492.533.328.8.839.8 1.531v4.218c0 .128.025.23.075.308.055.077.167.116.335.116.055 0 .116-.002.185-.007.068-.009.141-.02.218-.034v.909a3.44 3.44 0 0 1-.437.103c-.1.013-.237.02-.41.02-.424 0-.732-.15-.923-.451-.1-.159-.171-.385-.212-.677-.251.328-.611.613-1.08.855a3.347 3.347 0 0 1-1.552.362c-.679 0-1.235-.205-1.668-.615-.428-.415-.642-.932-.642-1.552 0-.679.212-1.205.635-1.579.424-.374.98-.604 1.668-.69l1.962-.247Zm6.959 3.61c.574 0 1.051-.239 1.429-.718.383-.483.574-1.203.574-2.16 0-.583-.084-1.085-.253-1.504-.319-.807-.902-1.21-1.75-1.21-.852 0-1.435.426-1.75 1.278-.168.456-.253 1.035-.253 1.737 0 .565.085 1.046.253 1.442.319.757.903 1.135 1.75 1.135Zm-3.185-6.46h1.196v.971c.246-.333.515-.591.807-.773.414-.273.902-.41 1.463-.41.829 0 1.533.319 2.112.957.579.633.868 1.54.868 2.721 0 1.595-.417 2.734-1.251 3.418a2.827 2.827 0 0 1-1.846.649c-.551 0-1.014-.121-1.387-.362-.219-.137-.463-.372-.732-.704v3.739h-1.23v-10.206Zm11.689-2.79h1.196v3.644c.269-.351.591-.617.964-.799.374-.187.78-.281 1.217-.281.912 0 1.65.315 2.215.944.57.624.854 1.547.854 2.768 0 1.158-.28 2.119-.84 2.885-.561.766-1.338 1.148-2.331 1.148-.556 0-1.026-.134-1.409-.403-.227-.159-.471-.415-.731-.766V110h-1.135V99.924Zm3.199 9.223c.666 0 1.162-.265 1.491-.793.332-.529.499-1.226.499-2.092 0-.77-.167-1.408-.499-1.914-.329-.506-.814-.759-1.456-.759-.561 0-1.053.207-1.477.622-.419.415-.629 1.098-.629 2.051 0 .688.087 1.246.26 1.675.323.806.927 1.21 1.811 1.21Zm5.633-1.094c0 .355.13.636.39.841.26.205.567.307.923.307.433 0 .852-.1 1.258-.301.683-.332 1.025-.877 1.025-1.633v-.992c-.15.096-.344.176-.581.24-.237.063-.47.109-.697.136l-.746.096c-.446.059-.781.153-1.004.28-.379.215-.568.556-.568 1.026Zm2.981-2.489c.282-.036.471-.154.567-.355.055-.109.082-.267.082-.472 0-.419-.15-.722-.451-.909-.296-.191-.722-.287-1.278-.287-.643 0-1.099.173-1.368.52-.15.191-.248.476-.294.854h-1.148c.023-.902.314-1.529.875-1.88.565-.355 1.219-.533 1.962-.533.861 0 1.561.164 2.099.492.533.328.799.839.799 1.531v4.218c0 .128.025.23.076.308.054.077.166.116.335.116.054 0 .116-.002.184-.007a4.8 4.8 0 0 0 .219-.034v.909a3.446 3.446 0 0 1-.438.103c-.1.013-.237.02-.41.02-.424 0-.731-.15-.923-.451-.1-.159-.171-.385-.212-.677-.25.328-.61.613-1.08.855a3.343 3.343 0 0 1-1.551.362c-.679 0-1.235-.205-1.668-.615-.429-.415-.643-.932-.643-1.552 0-.679.212-1.205.636-1.579.424-.374.98-.604 1.668-.69l1.962-.247Zm6.692-3.096c.825 0 1.495.2 2.01.601.519.401.832 1.092.936 2.072h-1.196c-.073-.452-.239-.825-.499-1.121-.26-.301-.677-.452-1.251-.452-.784 0-1.344.383-1.682 1.149-.218.497-.328 1.11-.328 1.839 0 .733.155 1.351.465 1.852.31.502.798.752 1.463.752.51 0 .914-.155 1.21-.465.301-.314.508-.743.622-1.285h1.196c-.136.971-.478 1.682-1.025 2.133-.547.447-1.246.67-2.099.67-.957 0-1.72-.349-2.29-1.046-.569-.702-.854-1.577-.854-2.625 0-1.285.312-2.285.936-3.001.625-.715 1.42-1.073 2.386-1.073Zm4.149-2.509h1.183v5.831l3.158-3.11h1.573l-2.803 2.741 2.96 4.58h-1.572l-2.284-3.691-1.032.943V110h-1.183V99.958Zm10.077 2.557c.519 0 1.023.123 1.51.369.488.241.859.556 1.115.943.246.369.41.8.492 1.292.073.337.109.875.109 1.613h-5.366c.023.743.198 1.34.526 1.791.328.447.837.67 1.525.67.642 0 1.155-.212 1.538-.635.219-.246.374-.531.465-.855h1.21c-.032.269-.139.57-.322.902a3.138 3.138 0 0 1-.601.807 2.858 2.858 0 0 1-1.388.738c-.296.073-.631.11-1.005.11a3.09 3.09 0 0 1-2.317-.991c-.634-.666-.95-1.595-.95-2.79 0-1.175.319-2.13.957-2.864.638-.733 1.472-1.1 2.502-1.1Zm1.962 3.24c-.051-.533-.167-.959-.349-1.278-.337-.593-.9-.889-1.689-.889-.565 0-1.039.205-1.421.615-.383.406-.586.923-.609 1.552h4.068Zm2.782-3.076h1.169v1.039c.346-.429.713-.736 1.1-.923.388-.187.818-.28 1.292-.28 1.039 0 1.741.362 2.106 1.087.2.396.301.963.301 1.702V110h-1.251v-4.614c0-.447-.067-.807-.199-1.08-.218-.456-.615-.684-1.189-.684-.292 0-.531.03-.718.089-.337.1-.633.301-.889.601a1.855 1.855 0 0 0-.403.752c-.059.256-.089.623-.089 1.101V110h-1.23v-7.321Zm8.572 3.746c0 .784.166 1.44.499 1.969.333.528.866.793 1.6.793.569 0 1.036-.244 1.401-.732.369-.492.554-1.196.554-2.112 0-.925-.189-1.609-.568-2.051-.378-.447-.845-.67-1.401-.67a1.86 1.86 0 0 0-1.511.711c-.383.474-.574 1.171-.574 2.092Zm1.853-3.876c.56 0 1.03.118 1.408.355.219.137.467.376.745.718v-3.698h1.183V110h-1.108v-1.019c-.287.452-.627.777-1.018.978-.392.201-.841.301-1.347.301-.816 0-1.522-.342-2.119-1.026-.597-.688-.896-1.602-.896-2.741 0-1.066.271-1.989.814-2.768.547-.784 1.326-1.176 2.338-1.176Zm9.091.13h1.169v1.264c.096-.246.331-.544.704-.895.374-.356.805-.533 1.292-.533.023 0 .062.002.117.006l.28.028v1.299a1.852 1.852 0 0 0-.403-.035c-.62 0-1.096.201-1.429.602a2.075 2.075 0 0 0-.499 1.374V110h-1.231v-7.321Zm7.534 6.528c.815 0 1.374-.308 1.674-.923.306-.62.458-1.308.458-2.064 0-.684-.109-1.24-.328-1.668-.346-.675-.943-1.012-1.791-1.012-.752 0-1.299.287-1.64.861-.342.575-.513 1.267-.513 2.078 0 .78.171 1.429.513 1.949.341.519.884.779 1.627.779Zm.047-6.74c.944 0 1.741.314 2.393.943.652.629.978 1.554.978 2.776 0 1.18-.288 2.155-.862 2.925-.574.771-1.465 1.156-2.673 1.156-1.007 0-1.807-.34-2.399-1.019-.592-.684-.889-1.6-.889-2.748 0-1.23.312-2.21.937-2.939.624-.73 1.463-1.094 2.515-1.094Zm4.874-2.509h1.231V110h-1.231V99.958Zm6.132 2.557c.52 0 1.023.123 1.511.369.488.241.859.556 1.114.943.246.369.41.8.492 1.292.073.337.11.875.11 1.613h-5.366c.022.743.198 1.34.526 1.791.328.447.836.67 1.524.67.643 0 1.156-.212 1.539-.635.218-.246.373-.531.464-.855h1.21c-.032.269-.139.57-.321.902a3.14 3.14 0 0 1-.602.807 2.855 2.855 0 0 1-1.387.738c-.296.073-.631.11-1.005.11a3.089 3.089 0 0 1-2.317-.991c-.634-.666-.951-1.595-.951-2.79 0-1.175.319-2.13.957-2.864.638-.733 1.472-1.1 2.502-1.1Zm1.962 3.24c-.05-.533-.166-.959-.348-1.278-.338-.593-.9-.889-1.689-.889-.565 0-1.039.205-1.422.615-.383.406-.585.923-.608 1.552h4.067Zm3.514 1.948c.036.41.139.725.307.943.31.397.848.595 1.614.595.456 0 .857-.098 1.203-.294.346-.2.519-.508.519-.923a.785.785 0 0 0-.417-.717c-.177-.101-.528-.217-1.052-.349l-.978-.246c-.624-.155-1.084-.328-1.381-.52-.528-.332-.793-.793-.793-1.38 0-.693.249-1.254.745-1.682.502-.429 1.174-.643 2.017-.643 1.103 0 1.898.324 2.386.971.305.41.453.852.444 1.326h-1.162a1.428 1.428 0 0 0-.294-.759c-.282-.323-.772-.485-1.47-.485-.464 0-.818.089-1.059.267a.837.837 0 0 0-.356.704c0 .319.158.574.472.765.182.114.451.215.807.301l.813.198c.884.215 1.477.422 1.777.622.479.315.718.809.718 1.484 0 .652-.248 1.214-.745 1.688-.492.474-1.244.711-2.256.711-1.089 0-1.861-.246-2.317-.738-.451-.497-.693-1.11-.725-1.839h1.183Z" fill="currentColor"/><path fill-rule="evenodd" clip-rule="evenodd" d="M422.033 15.198c1.733 1.833 2.93 4.318 3.275 7.122a1.516 1.516 0 0 1-.374 1.176 1.514 1.514 0 0 1-1.126.504H406.01a1.508 1.508 0 0 1-1.498-1.68c.343-2.804 1.54-5.29 3.273-7.122.37.342.757.663 1.173.95-1.557 1.603-2.648 3.824-2.958 6.355l17.808-.003c-.306-2.53-1.394-4.75-2.95-6.353.418-.286.805-.607 1.175-.95v.001ZM414.91 0a7.499 7.499 0 0 1 7.5 7.502 7.5 7.5 0 0 1-12.806 5.302 7.504 7.504 0 0 1 .002-10.608A7.501 7.501 0 0 1 414.91 0Zm5.39 4.864-.161.077c-.453.198-.952.31-1.48.31-.446 0-.868-.092-1.265-.236-1.032 1.278-2.59 2.11-4.36 2.11-.348 0-.737.01-1.139.013h-.304c-.95-.006-1.937-.081-2.625-.458a6.014 6.014 0 0 0 1.423 4.76 5.994 5.994 0 0 0 4.52 2.06 6.005 6.005 0 0 0 5.391-8.636Zm-22.267 10.334c1.733 1.833 2.93 4.318 3.275 7.122a1.516 1.516 0 0 1-.374 1.176 1.514 1.514 0 0 1-1.126.504H382.01a1.508 1.508 0 0 1-1.498-1.68c.343-2.804 1.54-5.29 3.273-7.122.37.342.757.663 1.173.95-1.557 1.603-2.648 3.824-2.958 6.355l17.808-.003c-.306-2.53-1.394-4.75-2.95-6.353.418-.286.805-.607 1.175-.95v.001ZM390.91 0a7.503 7.503 0 0 1 7.5 7.502 7.5 7.5 0 0 1-14.431 2.869A7.501 7.501 0 0 1 390.91 0Zm5.39 4.864-.161.077c-.453.198-.952.31-1.48.31-.446 0-.868-.092-1.265-.236-1.032 1.278-2.59 2.11-4.36 2.11-.348 0-.737.01-1.139.013h-.304c-.95-.006-1.937-.081-2.625-.458a6.014 6.014 0 0 0 1.423 4.76 5.994 5.994 0 0 0 4.52 2.06 6.005 6.005 0 0 0 5.391-8.636Zm49.733 10.334c1.733 1.833 2.93 4.318 3.275 7.122a1.516 1.516 0 0 1-.374 1.176 1.514 1.514 0 0 1-1.126.504H430.01a1.508 1.508 0 0 1-1.498-1.68c.343-2.804 1.54-5.29 3.273-7.122.37.342.757.663 1.173.95-1.557 1.603-2.648 3.824-2.958 6.355l17.808-.003c-.306-2.53-1.394-4.75-2.95-6.353.418-.286.805-.607 1.175-.95v.001ZM438.91 0a7.499 7.499 0 0 1 7.5 7.502 7.5 7.5 0 0 1-12.806 5.302 7.504 7.504 0 0 1 .002-10.608A7.501 7.501 0 0 1 438.91 0Zm5.39 4.864-.161.077c-.453.198-.952.31-1.48.31-.446 0-.868-.092-1.265-.236-1.032 1.278-2.59 2.11-4.36 2.11-.348 0-.737.01-1.139.013h-.304c-.95-.006-1.937-.081-2.625-.458a6.014 6.014 0 0 0 1.423 4.76 5.994 5.994 0 0 0 4.52 2.06 6.005 6.005 0 0 0 5.391-8.636Z" fill="currentColor"/><path d="M359.079 29.958h1.948l2.885 8.49 2.864-8.49h1.928V40h-1.292v-5.927c0-.205.005-.544.014-1.018.009-.474.014-.982.014-1.525L364.575 40h-1.346l-2.885-8.47v.308c0 .246.004.622.014 1.128.013.501.02.87.02 1.107V40h-1.299V29.958Zm12.476 8.094c0 .355.13.636.389.84.26.206.568.308.923.308.433 0 .853-.1 1.258-.3.684-.333 1.026-.878 1.026-1.634v-.992a2.12 2.12 0 0 1-.582.24 5.006 5.006 0 0 1-.697.136l-.745.096c-.447.06-.782.153-1.005.28-.378.215-.567.556-.567 1.026Zm2.98-2.489c.283-.036.472-.155.568-.355.054-.11.082-.267.082-.472 0-.419-.151-.722-.451-.909-.297-.191-.723-.287-1.279-.287-.642 0-1.098.173-1.367.52-.15.191-.248.476-.294.854h-1.148c.022-.902.314-1.529.875-1.88.565-.355 1.219-.533 1.962-.533.861 0 1.56.164 2.098.492.533.328.8.839.8 1.531v4.218c0 .128.025.23.075.308.055.077.167.116.335.116.055 0 .116-.002.185-.007.068-.009.141-.02.218-.034v.91a3.42 3.42 0 0 1-.437.102c-.1.013-.237.02-.41.02-.424 0-.732-.15-.923-.45-.1-.16-.171-.386-.212-.678-.251.328-.611.613-1.08.855a3.342 3.342 0 0 1-1.552.362c-.679 0-1.235-.205-1.668-.615-.428-.415-.642-.932-.642-1.552 0-.679.212-1.205.635-1.579.424-.374.98-.604 1.668-.69l1.962-.247Zm6.959 3.61c.574 0 1.051-.24 1.429-.718.383-.483.574-1.203.574-2.16 0-.583-.084-1.085-.253-1.504-.319-.807-.902-1.21-1.75-1.21-.852 0-1.435.426-1.75 1.278-.168.456-.253 1.035-.253 1.737 0 .565.085 1.046.253 1.442.319.757.903 1.135 1.75 1.135Zm-3.185-6.46h1.196v.97c.246-.332.515-.59.807-.772.414-.273.902-.41 1.463-.41.829 0 1.533.319 2.112.957.579.634.868 1.54.868 2.72 0 1.596-.417 2.735-1.251 3.419a2.828 2.828 0 0 1-1.846.65c-.551 0-1.014-.122-1.387-.363-.219-.137-.463-.372-.732-.704v3.739h-1.23V32.713Zm11.785 0h1.251V40h-1.251v-7.287Zm0-2.755h1.251v1.395h-1.251v-1.395Zm3.117 2.72h1.169v1.04c.346-.429.713-.736 1.101-.923.387-.187.818-.28 1.292-.28 1.039 0 1.74.362 2.105 1.087.201.396.301.963.301 1.702V40h-1.251v-4.614c0-.447-.066-.807-.198-1.08-.219-.456-.616-.684-1.19-.684-.292 0-.531.03-.718.089-.337.1-.633.3-.888.602a1.85 1.85 0 0 0-.404.752c-.059.255-.088.622-.088 1.1V40h-1.231v-7.321Zm8.039-2.043h1.244v2.044h1.169v1.005h-1.169v4.778c0 .255.087.426.26.513.096.05.255.075.479.075h.191l.239-.02V40c-.141.041-.289.07-.444.089a4.125 4.125 0 0 1-.492.027c-.575 0-.964-.146-1.169-.437-.205-.297-.308-.68-.308-1.149v-4.846h-.991v-1.005h.991v-2.044Zm6.699 1.88c.52 0 1.023.123 1.511.369.488.241.859.556 1.114.943.246.37.41.8.493 1.292.072.337.109.875.109 1.613h-5.366c.022.743.198 1.34.526 1.791.328.447.836.67 1.524.67.643 0 1.156-.212 1.539-.635.218-.246.373-.531.464-.855h1.21c-.032.269-.139.57-.321.902a3.167 3.167 0 0 1-.601.807c-.374.365-.837.61-1.388.738-.296.073-.631.11-1.005.11-.912 0-1.684-.33-2.317-.991-.634-.666-.951-1.596-.951-2.79 0-1.175.319-2.13.957-2.864.638-.733 1.472-1.1 2.502-1.1Zm1.962 3.24c-.05-.533-.166-.96-.348-1.278-.338-.593-.9-.89-1.689-.89-.565 0-1.039.206-1.422.616-.383.406-.585.923-.608 1.552h4.067Zm2.817-3.076h1.169v1.264c.095-.246.33-.544.704-.895.373-.356.804-.533 1.292-.533a9.85 9.85 0 0 1 .396.034v1.299a1.82 1.82 0 0 0-.205-.028 2.622 2.622 0 0 0-.198-.007c-.62 0-1.096.201-1.429.602a2.073 2.073 0 0 0-.499 1.374V40h-1.23v-7.321Zm4.628 0h1.169v1.039c.346-.429.713-.736 1.1-.923.387-.187.818-.28 1.292-.28 1.039 0 1.741.362 2.106 1.087.2.396.3.963.3 1.702V40h-1.251v-4.614c0-.447-.066-.807-.198-1.08-.219-.456-.615-.684-1.189-.684-.292 0-.531.03-.718.089-.337.1-.634.3-.889.602a1.847 1.847 0 0 0-.403.752c-.059.255-.089.622-.089 1.1V40h-1.23v-7.321Zm8.736 5.373c0 .355.13.636.39.84.259.206.567.308.922.308.433 0 .853-.1 1.258-.3.684-.333 1.026-.878 1.026-1.634v-.992a2.112 2.112 0 0 1-.581.24 5.02 5.02 0 0 1-.698.136l-.745.096c-.446.06-.781.153-1.005.28-.378.215-.567.556-.567 1.026Zm2.98-2.489c.283-.036.472-.155.568-.355.054-.11.082-.267.082-.472 0-.419-.151-.722-.451-.909-.297-.191-.723-.287-1.279-.287-.642 0-1.098.173-1.367.52-.15.191-.248.476-.294.854h-1.148c.023-.902.314-1.529.875-1.88.565-.355 1.219-.533 1.962-.533.861 0 1.561.164 2.098.492.533.328.8.839.8 1.531v4.218c0 .128.025.23.075.308.055.077.167.116.335.116.055 0 .116-.002.185-.007a4.8 4.8 0 0 0 .219-.034v.91a3.465 3.465 0 0 1-.438.102c-.1.013-.237.02-.41.02-.424 0-.732-.15-.923-.45-.1-.16-.171-.386-.212-.678-.251.328-.611.613-1.08.855a3.342 3.342 0 0 1-1.552.362c-.679 0-1.235-.205-1.668-.615-.428-.415-.642-.932-.642-1.552 0-.679.212-1.205.636-1.579.423-.374.979-.604 1.667-.69l1.962-.247Zm3.904-5.605h1.23V40h-1.23V29.958Zm8.21 2.72v4.861c0 .374.059.68.177.916.219.438.627.656 1.224.656.857 0 1.44-.383 1.75-1.148.169-.41.253-.973.253-1.689V32.68h1.23V40h-1.162l.014-1.08a2.49 2.49 0 0 1-.595.704c-.469.383-1.039.574-1.709.574-1.043 0-1.754-.348-2.133-1.046-.205-.373-.307-.872-.307-1.497V32.68h1.258Zm7.294 5.025c.036.41.139.725.307.944.31.396.848.594 1.614.594.455 0 .856-.098 1.203-.294.346-.2.519-.508.519-.923a.786.786 0 0 0-.417-.717c-.178-.1-.528-.217-1.053-.349l-.977-.246c-.624-.155-1.085-.328-1.381-.52-.529-.332-.793-.793-.793-1.38 0-.693.248-1.254.745-1.682.501-.428 1.174-.643 2.017-.643 1.103 0 1.898.324 2.386.971.305.41.453.852.444 1.326h-1.162a1.427 1.427 0 0 0-.294-.759c-.283-.323-.773-.485-1.47-.485-.465 0-.818.089-1.059.267a.839.839 0 0 0-.356.704c0 .319.157.574.472.765.182.114.451.215.806.301l.814.198c.884.215 1.476.422 1.777.623.479.314.718.808.718 1.483 0 .652-.248 1.214-.745 1.688-.492.474-1.244.711-2.256.711-1.089 0-1.862-.246-2.317-.738-.452-.497-.693-1.11-.725-1.839h1.183Zm9.317-5.188c.52 0 1.023.123 1.511.369.487.241.859.556 1.114.943.246.37.41.8.492 1.292.073.337.11.875.11 1.613h-5.367c.023.743.199 1.34.527 1.791.328.447.836.67 1.524.67.643 0 1.155-.212 1.538-.635.219-.246.374-.531.465-.855h1.21c-.032.269-.139.57-.321.902a3.17 3.17 0 0 1-.602.807c-.374.365-.836.61-1.388.738-.296.073-.631.11-1.004.11a3.09 3.09 0 0 1-2.318-.991c-.633-.666-.95-1.596-.95-2.79 0-1.175.319-2.13.957-2.864.638-.733 1.472-1.1 2.502-1.1Zm1.962 3.24c-.05-.533-.166-.96-.349-1.278-.337-.593-.9-.89-1.688-.89-.565 0-1.039.206-1.422.616-.383.406-.586.923-.608 1.552h4.067Zm2.816-3.076h1.169v1.264c.096-.246.331-.544.704-.895.374-.356.805-.533 1.292-.533a10.222 10.222 0 0 1 .397.034v1.299a1.82 1.82 0 0 0-.205-.028 2.641 2.641 0 0 0-.198-.007c-.62 0-1.097.201-1.429.602a2.073 2.073 0 0 0-.499 1.374V40h-1.231v-7.321Zm5.36 5.024c.036.41.139.725.307.944.31.396.848.594 1.614.594.455 0 .856-.098 1.203-.294.346-.2.519-.508.519-.923a.786.786 0 0 0-.417-.717c-.177-.1-.528-.217-1.052-.349l-.978-.246c-.624-.155-1.085-.328-1.381-.52-.529-.332-.793-.793-.793-1.38 0-.693.249-1.254.745-1.682.502-.428 1.174-.643 2.017-.643 1.103 0 1.898.324 2.386.971.305.41.453.852.444 1.326h-1.162a1.427 1.427 0 0 0-.294-.759c-.283-.323-.773-.485-1.47-.485-.465 0-.818.089-1.059.267a.839.839 0 0 0-.356.704c0 .319.157.574.472.765.182.114.451.215.806.301l.814.198c.884.215 1.476.422 1.777.623.479.314.718.808.718 1.483 0 .652-.248 1.214-.745 1.688-.492.474-1.244.711-2.256.711-1.089 0-1.862-.246-2.317-.738-.451-.497-.693-1.11-.725-1.839h1.183Z" fill="currentColor"/><path fill-rule="evenodd" clip-rule="evenodd" d="M19.033 51.198c1.733 1.833 2.93 4.318 3.275 7.122a1.51 1.51 0 0 1-1.5 1.68H3.01a1.508 1.508 0 0 1-1.498-1.68c.343-2.804 1.54-5.29 3.273-7.122.37.342.757.663 1.173.95C4.4 53.75 3.31 55.971 3 58.502l17.808-.003c-.306-2.53-1.394-4.75-2.95-6.353.418-.286.805-.607 1.175-.95v.002ZM11.91 36a7.5 7.5 0 1 1-.002 15 7.5 7.5 0 0 1 .002-15Zm5.39 4.864-.161.077c-.453.198-.952.31-1.48.31-.446 0-.868-.092-1.265-.236-1.032 1.278-2.59 2.11-4.36 2.11-.348 0-.737.01-1.139.013H8.59c-.95-.006-1.937-.081-2.625-.458a6.006 6.006 0 0 0 5.943 6.82 6.006 6.006 0 0 0 5.392-8.636Z" fill="currentColor"/><path clip-rule="evenodd" d="m35.737 53.514.201.212c1.04 1.15 1.538 2.625 1.505 4.11a6.497 6.497 0 0 1-1.925 4.444 6.553 6.553 0 0 1-3.164 1.764 6.12 6.12 0 0 1-3.941-.385l-3.659 3.659-1.468-.442-1.445 1.446c-.77.274-1.39.446-1.866.508-.206.026-.42.113-.509.023.057-.891.198-1.457.428-2.154l5.696-5.867a6.12 6.12 0 0 1-.384-3.934c.279-1.2.89-2.297 1.765-3.165a6.504 6.504 0 0 1 4.444-1.926c1.577-.034 3.144.529 4.322 1.707Z" stroke="currentColor" stroke-width="1.412"/><path d="M30.246 59.005c.527.527 1.402.508 1.953-.044.551-.551.57-1.426.044-1.953-.528-.527-1.402-.508-1.953.044-.552.551-.571 1.426-.044 1.953ZM5.735 88.059c.638 0 1.142-.128 1.511-.383.374-.255.56-.716.56-1.381 0-.716-.26-1.203-.779-1.463-.278-.137-.65-.205-1.114-.205H2.591v3.432h3.144ZM1.23 83.458h4.65c.766 0 1.397.112 1.893.335.944.428 1.415 1.219 1.415 2.372 0 .602-.125 1.094-.375 1.477-.247.382-.593.69-1.04.922.392.16.686.37.882.63.2.26.312.68.335 1.264l.048 1.347c.014.382.046.667.096.854.082.32.228.524.437.615v.226H7.902a1.254 1.254 0 0 1-.109-.335 6.427 6.427 0 0 1-.068-.793l-.082-1.675c-.032-.656-.276-1.096-.732-1.32-.26-.122-.668-.184-1.223-.184H2.59V93.5H1.23V83.458Zm12.695 9.249c.816 0 1.374-.308 1.675-.923.305-.62.458-1.308.458-2.064 0-.684-.11-1.24-.329-1.668-.346-.675-.943-1.012-1.79-1.012-.752 0-1.3.287-1.641.861-.342.575-.513 1.267-.513 2.079 0 .779.171 1.428.513 1.948.342.52.884.779 1.627.779Zm.048-6.74c.943 0 1.74.314 2.392.943.652.63.978 1.554.978 2.776 0 1.18-.287 2.155-.862 2.925-.574.77-1.465 1.156-2.672 1.156-1.008 0-1.807-.34-2.4-1.019-.592-.684-.889-1.6-.889-2.748 0-1.23.313-2.21.937-2.94.624-.729 1.463-1.093 2.516-1.093Zm4.874-2.509h1.23V93.5h-1.23V83.458Zm6.131 2.557c.52 0 1.024.123 1.511.369.488.241.86.556 1.114.943.247.37.41.8.493 1.292.073.337.11.875.11 1.613h-5.367c.023.743.198 1.34.526 1.791.328.447.837.67 1.525.67.642 0 1.155-.212 1.538-.635.218-.247.373-.531.465-.855h1.21c-.032.269-.14.57-.322.903a3.155 3.155 0 0 1-.601.806c-.374.365-.837.61-1.388.738-.296.073-.631.11-1.005.11-.911 0-1.684-.33-2.317-.991-.634-.666-.95-1.596-.95-2.79 0-1.175.319-2.13.957-2.864.638-.733 1.472-1.1 2.502-1.1Zm1.962 3.24c-.05-.533-.166-.96-.348-1.278-.337-.593-.9-.89-1.689-.89-.565 0-1.039.206-1.422.616-.382.406-.585.923-.608 1.552h4.067Z" fill="currentColor"/><path fill-rule="evenodd" clip-rule="evenodd" d="M57 26c0 6.627-5.373 12-12 12s-12-5.373-12-12 5.373-12 12-12 12 5.373 12 12Zm-9.202 3.004V30h-5.76c.039-.723.189-1.352.449-1.886.26-.536.766-1.022 1.52-1.46l1.125-.65c.504-.293.857-.543 1.061-.75.32-.324.48-.695.48-1.113 0-.489-.147-.876-.44-1.164-.293-.287-.683-.43-1.171-.43-.723 0-1.223.273-1.5.82-.149.293-.231.699-.247 1.219h-1.072c.012-.731.147-1.327.404-1.787.457-.813 1.264-1.219 2.42-1.219.961 0 1.663.259 2.107.779.443.52.665 1.098.665 1.735a2.35 2.35 0 0 1-.71 1.722c-.273.278-.763.614-1.47 1.008l-.803.446c-.32.169-.623.371-.902.603-.391.34-.637.717-.738 1.131h4.582ZM512 25c0 6.627-5.373 12-12 12s-12-5.373-12-12 5.373-12 12-12 12 5.373 12 12Zm-9.976 3.473c-.527.504-1.275.756-2.244.756h.001c-.993 0-1.713-.273-2.16-.817-.447-.546-.671-1.209-.671-1.99h1.102c.047.543.148.937.304 1.183.273.442.768.663 1.483.663.555 0 1-.149 1.336-.446.336-.297.503-.679.503-1.148 0-.578-.176-.983-.53-1.213-.353-.231-.844-.346-1.473-.346-.145 0-.289.004-.434.012v-.932c.171.02.344.03.516.03.394 0 .719-.063.972-.188.446-.219.668-.609.668-1.172 0-.418-.148-.74-.445-.966a1.658 1.658 0 0 0-1.037-.34c-.703 0-1.189.234-1.459.703-.148.258-.232.625-.252 1.101h-1.043c0-.625.125-1.156.375-1.593.43-.782 1.186-1.172 2.268-1.172.856 0 1.517.191 1.986.571.469.381.703.933.703 1.655 0 .516-.139.934-.416 1.254a1.744 1.744 0 0 1-.668.469 1.82 1.82 0 0 1 1.034.7c.248.346.372.769.372 1.269 0 .8-.263 1.453-.791 1.957Z" fill="currentColor"/><mask id="b" style="mask-type:luminance" maskUnits="userSpaceOnUse" x="117" y="22" width="119" height="68"><use stroke-width="1.5" stroke-linecap="square" stroke-dasharray="4 4" xlink:href="#a"/></mask><g mask="url(#b)"><use stroke-width="1.5" stroke-linecap="square" stroke-dasharray="4 4" xlink:href="#a"/></g><path d="M139.813 56.252c-.614 1.191-1.012 2.068-1.196 2.63-.277.856-.416 1.845-.416 2.966 0 1.133.159 2.168.475 3.105.195.578.58 1.41 1.154 2.496h-.709c-.57-.89-.923-1.459-1.06-1.705a7.86 7.86 0 0 1-.445-1.002 8.226 8.226 0 0 1-.522-2.824c0-1.156.182-2.186.545-3.088.23-.574.711-1.433 1.441-2.578h.733Zm2.027 7.078c0 .305.111.545.334.72.223.177.486.264.791.264a2.4 2.4 0 0 0 1.078-.257c.586-.285.879-.752.879-1.4v-.85c-.129.082-.295.15-.498.205a4.219 4.219 0 0 1-.598.117l-.638.082c-.383.05-.67.13-.862.24-.324.184-.486.477-.486.88Zm2.555-2.133c.242-.031.404-.133.486-.304a.926.926 0 0 0 .07-.405c0-.36-.128-.619-.386-.779-.254-.164-.619-.246-1.096-.246-.551 0-.941.148-1.172.445-.129.164-.213.408-.252.733h-.984c.019-.774.269-1.31.75-1.612.484-.304 1.045-.457 1.681-.457.739 0 1.338.14 1.799.422.457.281.686.719.686 1.313v3.615c0 .11.021.197.064.264.047.066.143.1.287.1.047 0 .1-.003.159-.007a3.21 3.21 0 0 0 .187-.029v.78a2.925 2.925 0 0 1-.375.087 2.739 2.739 0 0 1-.351.018c-.364 0-.627-.13-.791-.387-.086-.137-.147-.33-.182-.58-.215.281-.524.525-.926.732-.402.207-.846.31-1.33.31-.582 0-1.059-.175-1.43-.526-.367-.356-.55-.8-.55-1.33 0-.582.181-1.034.544-1.354.364-.32.84-.518 1.43-.592l1.682-.21Zm4.371-2.472v4.166c0 .32.051.582.152.785.188.375.537.562 1.049.562.734 0 1.234-.328 1.5-.984.145-.352.217-.834.217-1.447v-3.082h1.055V65h-.997l.012-.926a2.11 2.11 0 0 1-.51.604c-.402.328-.89.492-1.464.492-.895 0-1.504-.299-1.829-.897-.175-.32-.263-.748-.263-1.283v-4.265h1.078Zm5.836-1.752h1.066v1.752h1.002v.86h-1.002v4.097c0 .218.074.365.223.44.082.042.219.064.41.064h.164c.059-.004.127-.01.205-.018V65c-.121.035-.248.06-.381.076a3.52 3.52 0 0 1-.422.024c-.492 0-.826-.125-1.001-.375-.176-.254-.264-.582-.264-.985v-4.154h-.85v-.861h.85v-1.752Zm3.129-.61h1.054v3.211c.25-.316.475-.539.674-.668.34-.222.764-.334 1.272-.334.91 0 1.527.319 1.851.955.176.348.264.83.264 1.448V65h-1.084v-3.955c0-.461-.059-.799-.176-1.014-.191-.343-.551-.515-1.078-.515-.437 0-.834.15-1.189.45-.356.302-.534.87-.534 1.706V65h-1.054v-8.637Zm9.099 2.18c.707 0 1.282.172 1.723.516.445.343.713.935.803 1.775h-1.026a1.877 1.877 0 0 0-.427-.961c-.223-.258-.58-.387-1.073-.387-.672 0-1.152.329-1.441.985-.188.426-.281.95-.281 1.576 0 .629.133 1.158.398 1.588.266.43.684.644 1.254.644.438 0 .783-.132 1.037-.398.258-.27.436-.637.533-1.102h1.026c-.117.832-.41 1.442-.879 1.828-.469.383-1.069.575-1.799.575-.82 0-1.475-.3-1.963-.897-.488-.601-.732-1.351-.732-2.25 0-1.101.267-1.959.802-2.572.536-.613 1.217-.92 2.045-.92Zm9.575 1.195c.371-.261.627-.474.767-.638.231-.266.346-.56.346-.885a.939.939 0 0 0-.252-.656c-.168-.184-.395-.276-.68-.276-.433 0-.734.145-.902.434a.953.953 0 0 0-.129.486c0 .238.064.467.193.686.133.218.352.502.657.85Zm-.27 4.535c.434 0 .807-.1 1.119-.298.313-.2.553-.422.721-.668l-1.945-2.373c-.551.367-.911.648-1.079.843a1.57 1.57 0 0 0-.386 1.073c0 .457.166.808.498 1.054.336.246.693.37 1.072.37Zm-.691-4.06c-.364-.418-.608-.77-.733-1.055a2.11 2.11 0 0 1-.181-.826c0-.555.187-1.014.562-1.377.375-.367.877-.55 1.506-.55.598 0 1.064.17 1.4.51.336.339.504.745.504 1.218 0 .55-.174 1.033-.521 1.447-.203.242-.543.522-1.02.838l1.571 1.875c.105-.313.177-.545.216-.697.043-.156.086-.373.129-.65h1.002a6.431 6.431 0 0 1-.398 1.587c-.199.504-.299.707-.299.61L180.711 65h-1.359l-.809-.984c-.32.347-.613.601-.879.761-.465.282-1 .422-1.605.422-.895 0-1.545-.24-1.951-.72a2.475 2.475 0 0 1-.61-1.635c0-.653.198-1.197.592-1.635.242-.266.693-.598 1.354-.996Zm10.459 3.117c0 .305.111.545.334.72.222.177.486.264.791.264.371 0 .73-.085 1.078-.257.586-.285.879-.752.879-1.4v-.85c-.129.082-.295.15-.498.205a4.275 4.275 0 0 1-.598.117l-.639.082c-.383.05-.67.13-.861.24-.324.184-.486.477-.486.88Zm2.554-2.133c.242-.031.405-.133.487-.304a.926.926 0 0 0 .07-.405c0-.36-.129-.619-.387-.779-.254-.164-.619-.246-1.095-.246-.551 0-.942.148-1.172.445-.129.164-.213.408-.252.733h-.985c.02-.774.27-1.31.75-1.612.485-.304 1.045-.457 1.682-.457.738 0 1.338.14 1.799.422.457.281.685.719.685 1.313v3.615c0 .11.022.197.065.264.047.066.142.1.287.1.047 0 .1-.003.158-.007.059-.007.121-.017.188-.029v.78a2.925 2.925 0 0 1-.375.087 2.756 2.756 0 0 1-.352.018c-.363 0-.627-.13-.791-.387-.086-.137-.146-.33-.182-.58-.214.281-.523.525-.925.732-.403.207-.846.31-1.33.31-.583 0-1.059-.175-1.43-.526a1.776 1.776 0 0 1-.551-1.33c0-.582.182-1.034.545-1.354.363-.32.84-.518 1.43-.592l1.681-.21Zm4.371-2.472v4.166c0 .32.051.582.153.785.187.375.537.562 1.049.562.734 0 1.234-.328 1.5-.984.144-.352.216-.834.216-1.447v-3.082h1.055V65h-.996l.012-.926c-.137.239-.307.44-.51.604-.402.328-.891.492-1.465.492-.894 0-1.504-.299-1.828-.897-.176-.32-.264-.748-.264-1.283v-4.265h1.078Zm5.836-1.752h1.067v1.752h1.002v.86h-1.002v4.097c0 .218.074.365.222.44.082.042.219.064.411.064h.164c.058-.004.127-.01.205-.018V65c-.121.035-.248.06-.381.076-.129.016-.27.024-.422.024-.492 0-.826-.125-1.002-.375-.176-.254-.264-.582-.264-.985v-4.154h-.849v-.861h.849v-1.752Zm3.129-.61h1.055v3.211c.25-.316.475-.539.674-.668.34-.222.763-.334 1.271-.334.91 0 1.528.319 1.852.955.176.348.263.83.263 1.448V65h-1.084v-3.955c0-.461-.058-.799-.175-1.014-.192-.343-.551-.515-1.078-.515a1.8 1.8 0 0 0-1.19.45c-.355.302-.533.87-.533 1.706V65h-1.055v-8.637Zm6.211 7.805 3.721-4.5h-3.445v-.943h4.863v.86l-3.697 4.472h3.808V65h-5.25v-.832Zm6.112 3.281c.621-1.21 1.021-2.093 1.201-2.648.273-.84.41-1.824.41-2.953 0-1.13-.158-2.163-.475-3.1-.195-.578-.58-1.41-1.154-2.496h.709c.601.96.965 1.555 1.09 1.781.129.223.267.532.416.926.187.488.32.97.398 1.447.082.477.123.936.123 1.377 0 1.157-.183 2.188-.551 3.094-.23.582-.709 1.44-1.435 2.572h-.732Zm-63.237-25.246c.574 0 1.021-.08 1.34-.24.501-.25.752-.701.752-1.353 0-.656-.267-1.098-.8-1.326-.301-.127-.748-.191-1.34-.191h-2.427v3.11h2.475Zm.458 4.635c.834 0 1.429-.242 1.784-.725.223-.305.335-.674.335-1.107 0-.73-.326-1.226-.978-1.49-.346-.142-.804-.212-1.374-.212h-2.7v3.534h2.933Zm-4.266-8.88h4.314c1.175 0 2.012.35 2.508 1.053.292.414.438.893.438 1.435 0 .634-.18 1.153-.54 1.559-.187.214-.456.41-.807.588.515.196.9.417 1.156.663.451.437.676 1.041.676 1.811 0 .648-.202 1.233-.608 1.757-.606.784-1.57 1.176-2.892 1.176h-4.245V37.958Zm10.152 8.094c0 .355.129.636.389.84.26.206.568.308.923.308.433 0 .852-.1 1.258-.3.684-.333 1.025-.878 1.025-1.634v-.992a2.1 2.1 0 0 1-.581.24 5.006 5.006 0 0 1-.697.136l-.745.096c-.447.06-.782.153-1.005.28-.378.215-.567.556-.567 1.026Zm2.98-2.489c.283-.036.472-.155.567-.355.055-.11.082-.267.082-.472 0-.419-.15-.722-.451-.909-.296-.191-.722-.287-1.278-.287-.643 0-1.098.173-1.367.52-.151.191-.249.476-.294.854h-1.149c.023-.902.315-1.529.875-1.88.566-.355 1.219-.533 1.962-.533.862 0 1.561.164 2.099.492.533.328.8.839.8 1.531v4.218c0 .128.025.23.075.308.055.077.166.116.335.116.055 0 .116-.002.184-.007.069-.009.142-.02.219-.034v.91a3.42 3.42 0 0 1-.437.102 3.2 3.2 0 0 1-.41.02c-.424 0-.732-.15-.923-.45-.101-.16-.171-.386-.212-.678-.251.328-.611.613-1.08.855a3.35 3.35 0 0 1-1.552.362c-.679 0-1.235-.205-1.668-.615-.428-.415-.643-.932-.643-1.552 0-.679.212-1.205.636-1.579.424-.374.98-.604 1.668-.69l1.962-.247Zm6.692-3.096c.825 0 1.495.2 2.01.601.52.401.832 1.092.937 2.072h-1.197c-.072-.452-.239-.825-.499-1.121-.259-.301-.676-.452-1.251-.452-.783 0-1.344.383-1.681 1.149-.219.497-.328 1.11-.328 1.839 0 .733.155 1.35.465 1.852.309.502.797.752 1.462.752.511 0 .914-.155 1.21-.465.301-.314.509-.742.622-1.285h1.197c-.137.97-.479 1.682-1.026 2.133-.547.447-1.246.67-2.098.67-.957 0-1.721-.349-2.29-1.046-.57-.702-.855-1.577-.855-2.625 0-1.285.312-2.285.937-3.001.624-.715 1.419-1.073 2.385-1.073Zm4.15-2.509h1.182v5.831l3.159-3.11h1.572l-2.803 2.74 2.96 4.581h-1.572l-2.283-3.691-1.033.943V48h-1.182V37.958Zm10.076 2.557c.52 0 1.023.123 1.511.369.487.241.859.556 1.114.943.246.37.41.8.492 1.292.073.337.11.875.11 1.613h-5.367c.023.743.199 1.34.527 1.791.328.447.836.67 1.524.67.643 0 1.155-.212 1.538-.635.219-.246.374-.531.465-.855h1.21c-.032.269-.139.57-.321.902a3.146 3.146 0 0 1-.602.807c-.373.365-.836.61-1.387.738a4.22 4.22 0 0 1-1.005.11 3.09 3.09 0 0 1-2.318-.991c-.633-.666-.95-1.596-.95-2.79 0-1.175.319-2.13.957-2.864.638-.733 1.472-1.1 2.502-1.1Zm1.962 3.24c-.05-.533-.166-.96-.349-1.278-.337-.593-.9-.89-1.688-.89-.565 0-1.039.206-1.422.616-.383.406-.586.923-.608 1.552h4.067Zm2.782-3.076h1.169v1.039c.346-.429.713-.736 1.101-.923.387-.187.818-.28 1.292-.28 1.039 0 1.741.362 2.105 1.087.201.396.301.963.301 1.702V48h-1.251v-4.614c0-.447-.066-.807-.198-1.08-.219-.456-.616-.684-1.19-.684-.291 0-.531.03-.717.089-.338.1-.634.3-.889.602a1.83 1.83 0 0 0-.403.752c-.06.255-.089.622-.089 1.1V48h-1.231v-7.321Zm8.572 3.746c0 .784.167 1.44.499 1.969.333.528.866.793 1.6.793.57 0 1.037-.244 1.401-.732.37-.492.554-1.196.554-2.112 0-.925-.189-1.609-.567-2.051-.378-.447-.846-.67-1.402-.67-.619 0-1.123.237-1.51.711-.383.474-.575 1.171-.575 2.092Zm1.853-3.876c.561 0 1.03.118 1.408.355.219.137.467.376.745.718v-3.698h1.183V48h-1.108v-1.019c-.287.452-.626.777-1.018.978-.392.2-.841.3-1.347.3-.815 0-1.522-.341-2.119-1.025-.597-.688-.895-1.602-.895-2.74 0-1.067.271-1.99.813-2.77.547-.783 1.326-1.175 2.338-1.175Zm5.893 5.154c.036.41.139.725.307.944.31.396.848.594 1.613.594.456 0 .857-.098 1.204-.294.346-.2.519-.508.519-.923a.786.786 0 0 0-.417-.717c-.178-.1-.529-.217-1.053-.349l-.977-.246c-.625-.155-1.085-.328-1.381-.52-.529-.332-.793-.793-.793-1.38 0-.693.248-1.254.745-1.682.501-.428 1.174-.643 2.017-.643 1.103 0 1.898.324 2.385.971.306.41.454.852.445 1.326h-1.162a1.427 1.427 0 0 0-.294-.759c-.283-.323-.773-.485-1.47-.485-.465 0-.818.089-1.06.267a.838.838 0 0 0-.355.704c0 .319.157.574.472.765.182.114.451.215.806.301l.814.198c.884.215 1.476.422 1.777.623.479.314.718.808.718 1.483 0 .652-.248 1.214-.745 1.688-.492.474-1.244.711-2.256.711-1.089 0-1.862-.246-2.317-.738-.452-.497-.693-1.11-.725-1.839h1.183Z" fill="currentColor"/><path fill-rule="evenodd" clip-rule="evenodd" d="M247 26c0 6.627-5.373 12-12 12s-12-5.373-12-12 5.373-12 12-12 12 5.373 12 12Zm-11.089-4.355V30h-1.125v-5.941h-1.974v-.809c.761-.074 1.293-.198 1.593-.372.301-.173.526-.585.674-1.233h.832Z" fill="currentColor"/><path d="M49.5 58.5h68M235 58h33m0 0V43h72m-72 15v15h72" stroke="currentColor" stroke-width="1.5" stroke-linecap="square" stroke-dasharray="4 4"/></svg>
