<svg xmlns="http://www.w3.org/2000/svg" viewBox="0 0 503 117.7334"><defs><style>.cls-1,.cls-2,.cls-4,.cls-8{fill:#343741;}.cls-1{fill-rule:evenodd;}.cls-2,.cls-6,.cls-8{isolation:isolate;font-family:Helvetica;}.cls-2{font-size:14px;letter-spacing:-0.00401em;}.cls-3,.cls-7,.cls-9{fill:none;stroke:#343741;}.cls-3{stroke-width:1.41176px;}.cls-5{fill:#006bb4;}.cls-6,.cls-8{font-size:12px;}.cls-6{fill:#fff;}.cls-7,.cls-9{stroke-width:1.5px;stroke-dasharray:4 4;}.cls-8{letter-spacing:-0.00399em;}.cls-9{stroke-linecap:square;}</style></defs><title>Diagram matching new copy</title><g id="Layer_2" data-name="Layer 2"><g id="Layer_1-2" data-name="Layer 1"><path id="_-Color" data-name="↳🌈-Color" class="cls-1" d="M450.0332,81.1977a12.59621,12.59621,0,0,1,3.2745,7.122,1.50988,1.50988,0,0,1-1.5,1.68H434.0102a1.50792,1.50792,0,0,1-1.4985-1.68,12.58486,12.58486,0,0,1,3.273-7.122,10.6383,10.6383,0,0,0,1.173.9495,11.04159,11.04159,0,0,0-2.958,6.3555h0l17.808-.003a11.00947,11.00947,0,0,0-2.949-6.3525A10.51629,10.51629,0,0,0,450.0332,81.1977ZM442.909,66a7.5,7.5,0,1,1-7.5,7.5A7.50081,7.50081,0,0,1,442.909,66Zm5.38961,4.864-.16082.07659a3.60729,3.60729,0,0,1-2.74494.07438,5.58877,5.58877,0,0,1-4.359,2.1105c-.34875,0-.7375.01042-1.13972.01283h-.30378a5.82558,5.82558,0,0,1-2.62483-.45872A5.91977,5.91977,0,0,0,436.909,73.5a6,6,0,1,0,11.38961-2.636Z"/><path id="_-Color-2" data-name="↳🌈-Color" class="cls-1" d="M402.0332,81.1977a12.59621,12.59621,0,0,1,3.2745,7.122,1.50988,1.50988,0,0,1-1.5,1.68H386.0102a1.50792,1.50792,0,0,1-1.4985-1.68,12.58486,12.58486,0,0,1,3.273-7.122,10.6383,10.6383,0,0,0,1.173.9495,11.04159,11.04159,0,0,0-2.958,6.3555h0l17.808-.003a11.00947,11.00947,0,0,0-2.949-6.3525A10.51629,10.51629,0,0,0,402.0332,81.1977ZM394.909,66a7.5,7.5,0,1,1-7.5,7.5A7.50081,7.50081,0,0,1,394.909,66Zm5.38961,4.864-.16082.07659a3.60729,3.60729,0,0,1-2.74494.07438,5.58877,5.58877,0,0,1-4.359,2.1105c-.34875,0-.7375.01042-1.13972.01283h-.30378a5.82558,5.82558,0,0,1-2.62483-.45872A5.91977,5.91977,0,0,0,388.909,73.5a6,6,0,1,0,11.38961-2.636Z"/><path id="_-Color-3" data-name="↳🌈-Color" class="cls-1" d="M426.0332,81.1977a12.59621,12.59621,0,0,1,3.2745,7.122,1.50988,1.50988,0,0,1-1.5,1.68H410.0102a1.50792,1.50792,0,0,1-1.4985-1.68,12.58486,12.58486,0,0,1,3.273-7.122,10.6383,10.6383,0,0,0,1.173.9495,11.04159,11.04159,0,0,0-2.958,6.3555h0l17.808-.003a11.00947,11.00947,0,0,0-2.949-6.3525A10.51629,10.51629,0,0,0,426.0332,81.1977ZM418.909,66a7.5,7.5,0,1,1-7.5,7.5A7.50081,7.50081,0,0,1,418.909,66Zm5.38961,4.864-.16082.07659a3.60729,3.60729,0,0,1-2.74494.07438,5.58877,5.58877,0,0,1-4.359,2.1105c-.34875,0-.7375.01042-1.13972.01283h-.30378a5.82558,5.82558,0,0,1-2.62483-.45872A5.91977,5.91977,0,0,0,412.909,73.5a6,6,0,1,0,11.38961-2.636Z"/><text class="cls-2" transform="translate(349 111)">Map external identities</text><path id="_-Color-4" data-name="↳🌈-Color" class="cls-1" d="M422.0332,15.1977a12.59621,12.59621,0,0,1,3.2745,7.122,1.50988,1.50988,0,0,1-1.5,1.68H406.0102a1.50792,1.50792,0,0,1-1.4985-1.68,12.58486,12.58486,0,0,1,3.273-7.122,10.6383,10.6383,0,0,0,1.173.9495,11.04159,11.04159,0,0,0-2.958,6.3555h0l17.808-.003a11.00947,11.00947,0,0,0-2.949-6.3525A10.51629,10.51629,0,0,0,422.0332,15.1977ZM414.909,0a7.5,7.5,0,1,1-7.5,7.5A7.50081,7.50081,0,0,1,414.909,0Zm5.38961,4.864-.16082.07659a3.66477,3.66477,0,0,1-1.47894.30988,3.69729,3.69729,0,0,1-1.266-.2355,5.58877,5.58877,0,0,1-4.359,2.1105c-.34875,0-.7375.01042-1.13972.01283h-.30378a5.82558,5.82558,0,0,1-2.62483-.45872A5.91977,5.91977,0,0,0,408.909,7.5a6,6,0,1,0,11.38961-2.636Z"/><path id="_-Color-5" data-name="↳🌈-Color" class="cls-1" d="M398.0332,15.1977a12.59621,12.59621,0,0,1,3.2745,7.122,1.50988,1.50988,0,0,1-1.5,1.68H382.0102a1.50792,1.50792,0,0,1-1.4985-1.68,12.58486,12.58486,0,0,1,3.273-7.122,10.6383,10.6383,0,0,0,1.173.9495,11.04159,11.04159,0,0,0-2.958,6.3555h0l17.808-.003a11.00947,11.00947,0,0,0-2.949-6.3525A10.51629,10.51629,0,0,0,398.0332,15.1977ZM390.909,0a7.5,7.5,0,1,1-7.5,7.5A7.50081,7.50081,0,0,1,390.909,0Zm5.38961,4.864-.16082.07659a3.66477,3.66477,0,0,1-1.47894.30988,3.69729,3.69729,0,0,1-1.266-.2355,5.58877,5.58877,0,0,1-4.359,2.1105c-.34875,0-.7375.01042-1.13972.01283h-.30378a5.82558,5.82558,0,0,1-2.62483-.45872A5.91977,5.91977,0,0,0,384.909,7.5a6,6,0,1,0,11.38961-2.636Z"/><path id="_-Color-6" data-name="↳🌈-Color" class="cls-1" d="M446.0332,15.1977a12.59621,12.59621,0,0,1,3.2745,7.122,1.50988,1.50988,0,0,1-1.5,1.68H430.0102a1.50792,1.50792,0,0,1-1.4985-1.68,12.58486,12.58486,0,0,1,3.273-7.122,10.6383,10.6383,0,0,0,1.173.9495,11.04159,11.04159,0,0,0-2.958,6.3555h0l17.808-.003a11.00947,11.00947,0,0,0-2.949-6.3525A10.51629,10.51629,0,0,0,446.0332,15.1977ZM438.909,0a7.5,7.5,0,1,1-7.5,7.5A7.50081,7.50081,0,0,1,438.909,0Zm5.38961,4.864-.16082.07659a3.66477,3.66477,0,0,1-1.47894.30988,3.69729,3.69729,0,0,1-1.266-.2355,5.58877,5.58877,0,0,1-4.359,2.1105c-.34875,0-.7375.01042-1.13972.01283h-.30378a5.82558,5.82558,0,0,1-2.62483-.45872A5.91977,5.91977,0,0,0,432.909,7.5a6,6,0,1,0,11.38961-2.636Z"/><text class="cls-2" transform="translate(358.04749 41)">Map internal users</text><path id="_-Color-7" data-name="↳🌈-Color" class="cls-1" d="M19.0332,51.1977a12.59621,12.59621,0,0,1,3.2745,7.122,1.50988,1.50988,0,0,1-1.5,1.68H3.0102a1.50792,1.50792,0,0,1-1.4985-1.68,12.58486,12.58486,0,0,1,3.273-7.122,10.6383,10.6383,0,0,0,1.173.9495,11.04159,11.04159,0,0,0-2.958,6.3555h0l17.808-.003a11.00947,11.00947,0,0,0-2.949-6.3525A10.51629,10.51629,0,0,0,19.0332,51.1977ZM11.909,36a7.5,7.5,0,1,1-7.5,7.5A7.50081,7.50081,0,0,1,11.909,36Zm5.38961,4.864-.16082.07659a3.60729,3.60729,0,0,1-2.74494.07438,5.58877,5.58877,0,0,1-4.359,2.1105c-.34875,0-.7375.01042-1.13972.01283H8.5903a5.82558,5.82558,0,0,1-2.62483-.45872A5.91977,5.91977,0,0,0,5.909,43.5a6,6,0,1,0,11.38961-2.636Z"/><path id="Combined-Shape" class="cls-3" d="M35.73677,53.51323l.20084.21241a5.89457,5.89457,0,0,1,1.505,4.11023,6.60283,6.60283,0,0,1-5.0897,6.20851,6.12024,6.12024,0,0,1-3.94011-.38577h0l-3.65935,3.65811-1.46836-.44092L21.84,68.32094a9.51724,9.51724,0,0,1-1.86561.508c-.2066.02664-.41871.1132-.50828.02363a7.6965,7.6965,0,0,1,.42808-2.15442h0l5.69458-5.86673a6.12083,6.12083,0,0,1-.38325-3.93389,6.60282,6.60282,0,0,1,6.20863-5.09019,5.882,5.882,0,0,1,4.322,1.70649Z"/><ellipse id="Oval" class="cls-4" cx="31.24394" cy="58.00606" rx="1.41176" ry="1.35" transform="translate(-31.86536 39.08245) rotate(-45.00006)"/><text class="cls-2" transform="translate(0 94.5)">Role</text><circle id="_-Color-8" data-name="↳🌈-Color" class="cls-5" cx="45" cy="26" r="12"/><text class="cls-6" transform="translate(41.66309 29)">2</text><circle id="_-Color-9" data-name="↳🌈-Color" class="cls-5" cx="491" cy="25" r="12"/><text class="cls-6" transform="translate(487.66309 29)">3</text><rect id="path-1" class="cls-7" x="118" y="23" width="117" height="66" rx="3"/><text class="cls-8" transform="translate(136.2625 66)">(authc &amp; authz)</text><text class="cls-2" transform="translate(146.03879 49)">Backends</text><line id="Line" class="cls-9" x1="49.5" y1="57.44313" x2="117.5" y2="57.44313"/><path id="Line-2" data-name="Line" class="cls-9" d="M235,58h33V43h72"/><path id="Line-3" data-name="Line" class="cls-9" d="M235,58h33V73h72"/><circle id="_-Color-10" data-name="↳🌈-Color" class="cls-5" cx="235" cy="26" r="12"/><text class="cls-6" transform="translate(231.66309 29)">1</text></g></g></svg>