<svg xmlns="http://www.w3.org/2000/svg" xmlns:xlink="http://www.w3.org/1999/xlink" viewBox="0 0 512 114" width="512" height="114" xml:space="preserve"><style>.a{fill:currentColor}.b{fill-rule:evenodd;clip-rule:evenodd}.c{font-family:&quot;Helvetica&quot;}.d{font-size:14px}.f{letter-spacing:1}.h{fill:none;stroke:currentColor;stroke-width:1.5;stroke-miterlimit:1;stroke-dasharray:6,2}</style><defs><path class="a b" d="M18.1 15.2c1.7 1.8 2.9 4.3 3.3 7.1.1.9-.6 1.7-1.5 1.7H2.1c-.9 0-1.6-.8-1.5-1.7.3-2.8 1.5-5.3 3.3-7.1.4.3.8.7 1.2.9-1.6 1.6-2.6 3.8-3 6.4h17.8c-.3-2.5-1.4-4.7-2.9-6.4.4-.2.8-.6 1.1-.9zM11 0c4.1 0 7.5 3.4 7.5 7.5S15.1 15 11 15s-7.5-3.4-7.5-7.5S6.9 0 11 0zm5.4 4.9-.2.1a4.01 4.01 0 0 1-2.8.1A5.5 5.5 0 0 1 9 7.2H7.6c-.9 0-1.9-.1-2.6-.5v.8c0 3.3 2.7 6 6 6a6.02 6.02 0 0 0 5.4-8.6z" id="u"/></defs><text transform="translate(357.52 111)" class="a c d">Map backend roles</text><text transform="translate(357.66 41)"><tspan x="0" y="0" class="a c d">Map</tspan><tspan x="27.1" y="0" class="a c d f"> </tspan><tspan x="32.4" y="0" class="a c d">internal</tspan><tspan x="77.8" y="0" class="a c d f"> </tspan><tspan x="83.1" y="0" class="a c d">users</tspan></text><g id="Group" transform="translate(21 49.5)"><g id="Key" transform="rotate(45 6.75 12)"><path class="a" d="M6.5 23.6c-.1.1-.3.3-.6.3h-.3l-.2-.2c-.6-.7-1-1.3-1.3-2l-.1-.1-.1-7.9c-1.2-.5-2.2-1.5-3-2.6C.1 9.9-.2 8.5-.2 7.2c0-1.9.7-3.7 2-5C3.1.8 4.8.1 6.6.1h.3c1.7.1 3.3.8 4.5 2.1 1.3 1.3 2 3.1 2 5 0 1.4-.4 2.7-1.1 3.9a6.3 6.3 0 0 1-3 2.6v5.1l-1.3.7v1.8l-.1.1c-.4.8-.7 1.4-1 1.8l-.1.1c-.2.1-.2.2-.3.3zm-1.2-2.4c.2.3.3.6.5.9.2-.3.4-.6.6-1.1v-2.3l1.3-.7v-5.2l.5-.2a5.61 5.61 0 0 0 3.6-5.3c0-1.5-.6-2.9-1.6-4-.9-1-2.2-1.6-3.5-1.6h-.3c-1.4 0-2.7.6-3.7 1.6-1 1.1-1.6 2.5-1.6 4a5.61 5.61 0 0 0 3.6 5.3l.5.2.1 8.4z"/><ellipse id="Oval" transform="rotate(90 6.5 7.16)" class="a b" cx="6.5" cy="7.2" rx="1.4" ry="1.3"/></g></g><text transform="translate(0 94.5)" class="a c d">Role</text><path class="a b" d="M45 14c-6.6 0-12 5.4-12 12s5.4 12 12 12 12-5.4 12-12-5.4-12-12-12zm2.8 15v1H42c0-.7.2-1.4.4-1.9s.8-1 1.5-1.5l1.1-.7c.5-.3.9-.5 1.1-.8.3-.3.5-.7.5-1.1 0-.5-.1-.9-.4-1.2s-.7-.4-1.2-.4c-.7 0-1.2.3-1.5.8-.1.3-.2.7-.2 1.2h-1.1c0-.7.1-1.3.4-1.8.5-.8 1.3-1.2 2.4-1.2 1 0 1.7.3 2.1.8s.7 1.1.7 1.7c0 .7-.2 1.2-.7 1.7-.3.3-.8.6-1.5 1l-.8.4c-.4.2-.7.4-.9.6-.4.3-.6.7-.7 1.1h4.6zM499 13c-6.6 0-12 5.4-12 12s5.4 12 12 12 12-5.4 12-12-5.4-12-12-12zm2 15.5c-.5.5-1.3.8-2.2.8-1 0-1.7-.3-2.2-.8s-.7-1.2-.7-2h1.1c0 .5.1.9.3 1.2.3.4.8.7 1.5.7.6 0 1-.1 1.3-.4s.5-.7.5-1.1c0-.6-.2-1-.5-1.2s-.8-.3-1.5-.3h-.4v-.9h.5c.4 0 .7-.1 1-.2.4-.2.7-.6.7-1.2 0-.4-.1-.7-.4-1s-.6-.3-1-.3c-.7 0-1.2.2-1.5.7-.1.3-.2.6-.3 1.1h-1c0-.6.1-1.2.4-1.6.4-.8 1.2-1.2 2.3-1.2.9 0 1.5.2 2 .6s.7.9.7 1.7c0 .5-.1.9-.4 1.3-.2.2-.4.4-.7.5.4.1.8.4 1 .7s.4.8.4 1.3c-.1.4-.3 1.1-.9 1.6z"/><text transform="translate(136.26 66)" class="a c" font-size="12">(authc &amp; authz)</text><text transform="translate(146.04 49)" class="a c d">Backends</text><path class="a b" d="M238 14c-6.6 0-12 5.4-12 12s5.4 12 12 12 12-5.4 12-12-5.4-12-12-12zm.9 16h-1.1v-5.9h-2v-.8c.8-.1 1.3-.2 1.6-.4s.5-.6.7-1.2h.8V30z"/><path class="h" d="M121.5 22h110.1c1.6 0 3 1.4 3 3.1v61.8c0 1.7-1.3 3.1-3 3.1H121.5c-1.6 0-3-1.4-3-3.1V25.1c0-1.7 1.3-3.1 3-3.1z" stroke-dasharray="6.05 2.02"/><path class="h" d="M52 58h66m217.5-15h-60v30h60M235 58h3m2 0h31m1 0h3"/><use xlink:href="#u" x="1" y="36"/><use xlink:href="#u" x="384"/><use xlink:href="#u" x="408"/><use xlink:href="#u" x="432"/><use xlink:href="#u" x="384" y="66"/><use xlink:href="#u" x="408" y="66"/><use xlink:href="#u" x="432" y="66"/></svg>
